<?xml version="1.0" standalone="no"?>
<!DOCTYPE svg PUBLIC "-//W3C//DTD SVG 20010904//EN"
 "http://www.w3.org/TR/2001/REC-SVG-20010904/DTD/svg10.dtd">
<svg version="1.0" xmlns="http://www.w3.org/2000/svg"
 width="128.000000pt" height="128.000000pt" viewBox="0 0 128.000000 128.000000"
 preserveAspectRatio="xMidYMid meet">
<metadata>
Created by potrace 1.11, written by Peter Selinger 2001-2013
</metadata>
<g transform="translate(0.000000,128.000000) scale(0.100000,-0.100000)"
fill="#000000" stroke="none">
<path d="M636 1253 c-2 -3 -19 -7 -38 -9 -18 -3 -58 -9 -88 -14 -56 -8 -198
-71 -245 -108 -21 -17 -44 -43 -109 -122 -73 -91 -99 -156 -119 -295 -12 -80
-11 -98 4 -163 38 -160 81 -249 161 -333 66 -71 169 -139 242 -161 46 -14 179
-36 191 -32 5 2 37 5 70 8 97 9 167 25 220 51 60 29 207 170 235 224 62 122
113 325 99 391 -4 19 -10 46 -12 60 -3 14 -20 65 -37 114 -36 98 -102 194
-166 239 -46 33 -226 121 -269 132 -45 11 -134 22 -139 18z m132 -48 c64 -19
175 -72 242 -115 122 -78 232 -315 217 -469 -14 -140 -79 -311 -143 -373 l-32
-32 -171 -4 -170 -3 -6 48 c-4 26 -10 71 -14 98 -4 28 -7 102 -6 166 0 97 3
119 18 134 12 11 15 24 11 34 -10 20 -9 74 0 121 8 38 26 65 26 38 0 -9 8 -19
17 -22 13 -5 14 -9 5 -15 -9 -5 -10 -15 -4 -32 4 -13 8 -43 7 -66 -1 -35 2
-43 16 -43 29 0 41 35 33 98 -3 31 -12 72 -20 90 l-13 32 45 -30 c51 -36 94
-77 94 -90 0 -6 4 -10 9 -10 15 0 29 24 25 45 -4 27 -102 114 -137 122 -31 6
-32 25 -1 29 10 2 33 6 49 9 17 3 51 6 78 6 40 0 47 3 47 20 0 26 -41 41 -94
34 -22 -3 -54 -7 -69 -9 -15 -1 -33 -8 -39 -14 -19 -19 -24 -15 -62 37 -26 37
-45 53 -72 60 -21 6 -40 8 -43 6 -7 -8 31 -45 46 -45 8 0 12 -4 8 -9 -3 -5 -1
-12 5 -16 5 -3 10 -10 10 -15 0 -4 -23 1 -52 12 -53 20 -119 19 -160 -3 -25
-14 -21 -17 27 -23 22 -3 55 -10 73 -15 18 -5 40 -7 49 -4 10 4 14 2 11 -7 -2
-7 -13 -15 -24 -16 -63 -9 -83 -18 -123 -53 -52 -47 -52 -67 2 -41 21 10 40
19 42 19 3 0 22 5 43 11 20 5 47 10 60 10 l23 0 -27 -35 c-14 -19 -23 -35 -20
-35 4 0 3 -8 -2 -17 -5 -10 -5 -31 -2 -48 l7 -30 16 35 c8 19 19 39 24 43 4 5
8 12 8 16 0 4 9 16 19 27 17 16 19 16 13 2 -3 -9 -12 -45 -19 -78 l-12 -62
-41 8 c-22 4 -57 7 -77 7 -21 -1 -38 1 -38 3 0 11 28 51 54 77 34 35 29 43
-19 27 -22 -7 -41 -23 -50 -40 -22 -42 -29 -43 -82 -14 -39 22 -55 26 -86 20
-49 -9 -47 -21 8 -35 25 -6 45 -15 45 -20 0 -5 -24 -12 -54 -15 -44 -6 -63
-15 -101 -48 -25 -22 -44 -42 -42 -44 2 -2 30 4 63 14 32 11 73 22 89 26 l30
6 -42 -37 c-22 -21 -47 -49 -54 -63 -16 -32 -29 -90 -20 -90 10 0 51 57 51 71
0 7 3 9 6 6 4 -3 25 9 47 28 22 19 42 33 44 31 2 -2 -1 -22 -6 -45 -5 -25 -6
-55 0 -74 9 -34 49 -99 49 -82 9 240 7 224 24 200 35 -52 91 -257 102 -380 l6
-63 -161 2 -161 2 -25 30 c-41 46 -94 138 -114 196 -10 29 -18 55 -18 58 0 3
-6 29 -13 59 -12 50 -10 131 5 216 13 73 37 125 84 186 20 26 45 59 56 75 11
15 35 41 52 57 43 40 189 112 233 116 19 1 53 6 75 11 66 13 138 11 193 -5z
m-180 -519 c19 -2 38 -8 44 -14 12 -12 1 -92 -13 -92 -5 0 -9 3 -9 8 0 7 -35
53 -65 83 -18 19 -20 30 -2 24 6 -3 27 -7 45 -9z m-33 -106 c3 -11 11 -20 16
-20 5 0 9 -6 9 -14 0 -8 8 -24 18 -37 16 -18 18 -35 14 -93 -2 -39 -5 -72 -6
-72 0 -1 -22 61 -47 137 -37 112 -43 136 -28 129 10 -6 21 -19 24 -30z m433
-427 c-26 -28 -108 -73 -145 -79 -12 -2 -35 -7 -50 -10 -16 -3 -73 -8 -128
-11 -138 -7 -256 24 -340 91 l-27 22 188 2 c104 2 189 4 190 5 1 1 77 3 169 3
l166 2 -23 -25z"/>
</g>
</svg>
